PathFileType	4	(X/Y/Z)	l_comf_01_markers.trc
DataRate	CameraRate	NumFrames	NumMarkers	Units	OrigDataRate	OrigDataStartFrame	OrigNumFrames
100.000000	100.000000	4	96	mm	100.000000	729	973
Frame#	Time	Torso1			Torso2			Torso3			RFemur1			RFemur2			RFemur3			RFemur4			LFemur1			LFemur2			LFemur4			RTibia1			RTibia2			RTibia3			RTibia4			LTibia2			LTibia3			LTibia4			LFoot1			LFoot2			LFoot3			RFoot2			RFoot3			LFemur3			LTibia1			RFoot1			Pelvis3			Pelvis4			Torso4			Pelvis1			Pelvis2			*30			*31			*32			*33			*34			*35			*36			*37			*38			*39			*40			*41			*42			*43			*44			*45			*46			*47			*48			*49			*50			*51			*52			*53			*54			*55			*56			*57			*58			*59			*60			*61			*62			*63			*64			Pelvis_RFemur_score			Pelvis_LFemur_score			RFemur_RTibia_score			RFemur_RTibia_sara			LFemur_LTibia_score			LFemur_LTibia_sara			RKnee			LKnee			RTibia_RFoot_score			LTibia_LFoot_score			USERMO0			USERMO1			USERMO2			USERMO3			USERMO4			USERMO5			USERMO6			USERMO7			USERMO8			USERMO9			USERMO10			USERMO11			USERMO12			USERMO13			USERMO14			USERMO15			USERMO16			USERMO17			USERMO18			USERMO19			USERMO20			
		X1	Y1	Z1	X2	Y2	Z2	X3	Y3	Z3	X4	Y4	Z4	X5	Y5	Z5	X6	Y6	Z6	X7	Y7	Z7	X8	Y8	Z8	X9	Y9	Z9	X10	Y10	Z10	X11	Y11	Z11	X12	Y12	Z12	X13	Y13	Z13	X14	Y14	Z14	X15	Y15	Z15	X16	Y16	Z16	X17	Y17	Z17	X18	Y18	Z18	X19	Y19	Z19	X20	Y20	Z20	X21	Y21	Z21	X22	Y22	Z22	X23	Y23	Z23	X24	Y24	Z24	X25	Y25	Z25	X26	Y26	Z26	X27	Y27	Z27	X28	Y28	Z28	X29	Y29	Z29	X30	Y30	Z30	X31	Y31	Z31	X32	Y32	Z32	X33	Y33	Z33	X34	Y34	Z34	X35	Y35	Z35	X36	Y36	Z36	X37	Y37	Z37	X38	Y38	Z38	X39	Y39	Z39	X40	Y40	Z40	X41	Y41	Z41	X42	Y42	Z42	X43	Y43	Z43	X44	Y44	Z44	X45	Y45	Z45	X46	Y46	Z46	X47	Y47	Z47	X48	Y48	Z48	X49	Y49	Z49	X50	Y50	Z50	X51	Y51	Z51	X52	Y52	Z52	X53	Y53	Z53	X54	Y54	Z54	X55	Y55	Z55	X56	Y56	Z56	X57	Y57	Z57	X58	Y58	Z58	X59	Y59	Z59	X60	Y60	Z60	X61	Y61	Z61	X62	Y62	Z62	X63	Y63	Z63	X64	Y64	Z64	X65	Y65	Z65	X66	Y66	Z66	X67	Y67	Z67	X68	Y68	Z68	X69	Y69	Z69	X70	Y70	Z70	X71	Y71	Z71	X72	Y72	Z72	X73	Y73	Z73	X74	Y74	Z74	X75	Y75	Z75	X76	Y76	Z76	X77	Y77	Z77	X78	Y78	Z78	X79	Y79	Z79	X80	Y80	Z80	X81	Y81	Z81	X82	Y82	Z82	X83	Y83	Z83	X84	Y84	Z84	X85	Y85	Z85	X86	Y86	Z86	X87	Y87	Z87	X88	Y88	Z88	X89	Y89	Z89	X90	Y90	Z90	X91	Y91	Z91	X92	Y92	Z92	X93	Y93	Z93	X94	Y94	Z94	X95	Y95	Z95	X96	Y96	Z96	

730	7.29	332.4144592285156	1127.695434570312	1400.16552734375	502.9958190917969	1086.701171875	1431.775512695312	158.9861450195312	1055.80322265625	1434.136840820312	492.6149291992188	967.0794677734375	640.1840209960938	473.3101196289062	950.4658813476562	540.2451171875	488.3265380859375	985.3306274414062	582.456298828125	488.41650390625	1022.447265625	577.0255126953125	181.0351104736328	1144.524658203125	641.4365234375	167.5041351318359	1214.7802734375	636.6700439453125	177.5853118896484	1176.807250976562	619.2471313476562	457.6167297363281	904.3782348632812	360.9351806640625	461.7073974609375	934.3239135742188	412.4220581054688	450.647705078125	908.5066528320312	313.8236694335938	447.6767883300781	866.35107421875	374.2330322265625	184.1078033447266	1291.4306640625	366.2461242675781	194.1901397705078	1326.97216796875	310.9129943847656	193.8649749755859	1293.256958007812	416.6449279785156	290.7037048339844	1355.211303710938	39.89973449707031	242.0880432128906	1564.939819335938	125.5016555786133	208.0767822265625	1523.5283203125	98.56324005126953	370.0536193847656	1010.185119628906	30.3213939666748	418.7197265625	956.5870971679688	28.04246711730957	197.5788116455078	1196.341552734375	550.63818359375	190.6547698974609	1243.475708007812	366.6250610351562	331.8932800292969	774.6102905273438	51.24571228027344	375.4110107421875	928.8773803710938	892.9176635742188	305.6690063476562	933.1494750976562	890.4602661132812	342.7293701171875	994.573974609375	1473.813842773438	294.7702026367188	959.79931640625	1002.083374023438	375.074951171875	955.6220092773438	1007.974670410156	1514.825927734375	1874.926635742188	632.4969482421875	1635.051635742188	1800.7451171875	659.3515014648438	1555.521850585938	1902.881591796875	630.70947265625	1463.722534179688	1824.002197265625	577.1786499023438	2072.713623046875	1753.3056640625	494.3846130371094	nan	nan	nan	nan	nan	nan	nan	nan	nan	1628.14111328125	1821.289306640625	657.9645385742188	nan	nan	nan	1445.662841796875	1364.081787109375	518.1851806640625	nan	nan	nan	nan	nan	nan	nan	nan	nan	nan	nan	nan	nan	nan	nan	nan	nan	nan	nan	nan	nan	nan	nan	nan	nan	nan	nan	nan	nan	nan	nan	nan	nan	nan	nan	nan	nan	nan	nan	nan	nan	nan	nan	nan	nan	nan	nan	nan	nan	nan	nan	nan	nan	nan	nan	nan	nan	nan	nan	nan	nan	nan	nan	nan	nan	nan	nan	nan	nan	nan	nan	nan	469.14306640625	1054.210693359375	891.2885131835938	227.6506500244141	1083.733764648438	867.3709106445312	419.6000671386719	959.945556640625	458.29345703125	321.3878784179688	967.6818237304688	475.4551086425781	256.0602722167969	1265.880737304688	473.3392639160156	354.5783996582031	1277.531982421875	485.9258422851562	419.6000061035156	959.9459838867188	458.2929992675781	256.0599975585938	1265.880004882812	473.3389892578125	280.7407531738281	797.5812377929688	41.81571197509766	249.6498718261719	1375.688720703125	34.89688110351562	2.190811157226562	2.50374960899353	-1.985122203826904	0.1819183379411697	1.185095906257629	0.6095081567764282	0.1000000014901161	0.1000000014901161	0.1000000014901161	0.1281355619430542	-0.5252087116241455	1.701251983642578	0.2469561845064163	1.481226563453674	0.08798822015523911	0.1000000014901161	0.1000000014901161	0.1000000014901161	2.301940441131592	2.536285161972046	-2.048346757888794	0.1897740811109543	1.287288427352905	0.3479411602020264	0.1000000014901161	0.1000000014901161	0.1000000014901161	-1.801778316497803	-0.00820491649210453	-0.1008269488811493	0.3484116494655609	0.9480633139610291	0.967706024646759	0.1000000014901161	0.1000000014901161	0.1000000014901161	-0.02285805530846119	1.738637447357178	-0.2659974992275238	0.4845205843448639	0.9677358865737915	0.5875679850578308	0.1000000014901161	0.1000000014901161	0.1000000014901161	2.422917366027832	2.028343200683594	-0.2175513505935669	0.3735555708408356	0.913794219493866	0.03653652593493462	0.1000000014901161	0.1000000014901161	0.1000000014901161	-0.2591446936130524	-1.420933604240417	0.5437037944793701	0.4567175805568695	0.9157853722572327	0.3623100519180298	0.1000000014901161	0.1000000014901161	0.1000000014901161	
731	7.3	332.3471374511719	1142.588500976562	1397.847045898438	502.6216430664062	1101.230346679688	1429.708618164062	158.5068969726562	1071.283935546875	1431.700073242188	492.3342590332031	978.9840698242188	639.4447631835938	473.2565307617188	961.2069702148438	539.62548828125	488.1585083007812	996.5140991210938	581.4050903320312	488.7563171386719	1033.537231445312	575.4708251953125	181.7534484863281	1158.849731445312	639.0348510742188	165.7308959960938	1228.625610351562	632.7601928710938	177.753173828125	1190.708740234375	616.1344604492188	457.8500366210938	912.292724609375	361.4115295410156	461.8041687011719	943.2178955078125	412.1722717285156	450.9029846191406	915.3349609375	314.2390441894531	448.1451416015625	874.5455932617188	375.4715270996094	186.7397918701172	1311.8984375	366.4332580566406	197.2620697021484	1348.720458984375	312.0758056640625	196.7290191650391	1312.203369140625	416.940185546875	292.6390380859375	1380.346313476562	40.35280227661133	249.4977416992188	1589.411865234375	130.453857421875	214.3886566162109	1549.228759765625	102.8280792236328	369.9933776855469	1010.107299804688	30.31184768676758	418.7762451171875	956.5	28.04284286499023	199.3979187011719	1210.382690429688	548.018310546875	191.624267578125	1263.889038085938	365.5483093261719	332.5525512695312	774.8841552734375	54.63212585449219	373.3830261230469	943.4575805664062	890.9469604492188	303.8051452636719	948.3456420898438	888.1263427734375	342.1524047851562	1009.359558105469	1471.776489257812	292.8365478515625	975.1708374023438	999.7909545898438	373.206298828125	970.2030639648438	1005.890014648438	1514.813598632812	1874.915161132812	632.4771728515625	1627.426635742188	1802.61962890625	662.90234375	nan	nan	nan	1463.733032226562	1824.029052734375	577.27587890625	nan	nan	nan	-3559.2734375	-673.3595581054688	995.3671264648438	-3559.967529296875	-673.0809936523438	972.1412353515625	1593.332153320312	1886.914184570312	696.604248046875	1628.100341796875	1821.382690429688	657.993896484375	nan	nan	nan	1445.614013671875	1364.267700195312	518.2182006835938	nan	nan	nan	nan	nan	nan	nan	nan	nan	nan	nan	nan	nan	nan	nan	nan	nan	nan	nan	nan	nan	nan	nan	nan	nan	nan	nan	nan	nan	nan	nan	nan	nan	nan	nan	nan	nan	nan	nan	nan	nan	nan	nan	nan	nan	nan	nan	nan	nan	nan	nan	nan	nan	nan	nan	nan	nan	nan	nan	nan	nan	nan	nan	nan	nan	nan	nan	nan	nan	nan	nan	nan	468.5045776367188	1068.743896484375	889.3563842773438	225.1074981689453	1100.860717773438	865.789306640625	419.7105102539062	969.788330078125	457.4718627929688	321.4728088378906	977.92333984375	474.2995300292969	258.2174987792969	1281.233032226562	472.0913696289062	356.521240234375	1293.301147460938	485.9020385742188	419.7109985351562	969.7880249023438	457.4719848632812	258.2179870605469	1281.22998046875	472.0910034179688	281.3568115234375	797.7666625976562	45.10430145263672	252.1104583740234	1402.53271484375	36.51211166381836	2.138200044631958	2.503572702407837	-1.94839334487915	0.1821596324443817	1.199132204055786	0.6065070033073425	0.1000000014901161	0.1000000014901161	0.1000000014901161	0.1407233476638794	-0.5378323793411255	1.672466993331909	0.2521751523017883	1.50632905960083	0.09121157974004745	0.1000000014901161	0.1000000014901161	0.1000000014901161	2.34751033782959	2.565430879592896	-2.030685901641846	0.1919837445020676	1.308174729347229	0.3480577766895294	0.1000000014901161	0.1000000014901161	0.1000000014901161	-1.802202820777893	-0.001206709537655115	-0.1099603027105331	0.3464764356613159	0.9628989100456238	0.9655603170394897	0.1000000014901161	0.1000000014901161	0.1000000014901161	-0.02597968466579914	1.733807921409607	-0.2826718688011169	0.4843750596046448	0.9790098667144775	0.586753785610199	0.1000000014901161	0.1000000014901161	0.1000000014901161	2.419329404830933	2.027724504470825	-0.2461532801389694	0.3737740516662598	0.913830578327179	0.03766227513551712	0.1000000014901161	0.1000000014901161	0.1000000014901161	-0.2723867893218994	-1.416913628578186	0.5629709959030151	0.4569187760353088	0.9236882328987122	0.3625211417675018	0.1000000014901161	0.1000000014901161	0.1000000014901161	
732	7.31	332.3224487304688	1157.611938476562	1395.660522460938	502.1783142089844	1115.722534179688	1427.82958984375	158.0049591064453	1086.94482421875	1429.441284179688	491.9413452148438	991.3462524414062	638.591796875	473.09912109375	972.5733642578125	538.9025268554688	488.2861022949219	1008.358215332031	580.4906005859375	488.7723083496094	1045.21337890625	574.0792236328125	181.5462341308594	1175.504638671875	637.6364135742188	165.4770355224609	1245.279418945312	630.520751953125	177.5832214355469	1207.284423828125	614.3820190429688	458.1613464355469	921.0493774414062	361.8237915039062	461.6398620605469	952.9661254882812	411.8822021484375	451.0661010742188	923.0852661132812	314.5775451660156	448.7954406738281	883.5704345703125	376.7126159667969	189.941162109375	1331.255126953125	366.3914489746094	200.5874176025391	1368.892578125	312.7385559082031	200.0849151611328	1330.311767578125	416.8597106933594	294.3205261230469	1400.614624023438	40.10651397705078	257.8072509765625	1610.019287109375	132.4179992675781	221.0787506103516	1571.08056640625	105.0657424926758	369.9002075195312	1009.998474121094	30.29965782165527	418.8124084472656	956.4342651367188	28.03468894958496	200.2328491210938	1226.126342773438	546.3541870117188	192.6979522705078	1283.142822265625	364.65625	333.4541320800781	775.3698120117188	58.47952270507812	371.5923156738281	958.2144775390625	888.9995727539062	301.9433288574219	963.6981201171875	886.1776733398438	341.368896484375	1024.173095703125	1469.826782226562	291.1452941894531	991.0960693359375	997.5786743164062	371.3784790039062	985.07568359375	1003.898681640625	1514.9365234375	1874.98779296875	632.5967407226562	nan	nan	nan	1634.9794921875	1800.775634765625	659.0508422851562	1463.733520507812	1824.030517578125	577.3317260742188	nan	nan	nan	nan	nan	nan	nan	nan	nan	nan	nan	nan	1628.136840820312	1821.321899414062	657.8989868164062	nan	nan	nan	1445.62548828125	1364.146606445312	518.1672973632812	nan	nan	nan	nan	nan	nan	nan	nan	nan	nan	nan	nan	nan	nan	nan	nan	nan	nan	nan	nan	nan	nan	nan	nan	nan	nan	nan	nan	nan	nan	nan	nan	nan	nan	nan	nan	nan	nan	nan	nan	nan	nan	nan	nan	nan	nan	nan	nan	nan	nan	nan	nan	nan	nan	nan	nan	nan	nan	nan	nan	nan	nan	nan	nan	nan	nan	nan	nan	nan	nan	nan	nan	467.8984069824219	1083.050903320312	887.4273681640625	223.5443572998047	1118.440063476562	864.281005859375	419.6183471679688	980.2880859375	456.6247863769531	321.3215026855469	988.3382568359375	473.1454467773438	260.6160583496094	1296.175903320312	470.5141906738281	359.1190490722656	1306.64013671875	484.2131652832031	419.6180114746094	980.2880249023438	456.625	260.6159973144531	1296.180053710938	470.5140075683594	282.4178771972656	797.9888916015625	48.70476913452148	254.119873046875	1425.077758789062	37.31352996826172	2.142779588699341	2.487236261367798	-1.936348557472229	0.1822398006916046	1.215514659881592	0.6047356724739075	0.1000000014901161	0.1000000014901161	0.1000000014901161	0.1517070233821869	-0.5323737263679504	1.644081473350525	0.2577355206012726	1.527238249778748	0.09253008663654327	0.1000000014901161	0.1000000014901161	0.1000000014901161	2.402332067489624	2.578445911407471	-2.023267507553101	0.1944776177406311	1.327776789665222	0.3479694724082947	0.1000000014901161	0.1000000014901161	0.1000000014901161	-1.804881930351257	0.007371691986918449	-0.1196723952889442	0.3446868360042572	0.9780570268630981	0.9635462164878845	0.1000000014901161	0.1000000014901161	0.1000000014901161	-0.02947814203798771	1.729356169700623	-0.2946157455444336	0.4842080771923065	0.9908568859100342	0.5859195590019226	0.1000000014901161	0.1000000014901161	0.1000000014901161	2.414610862731934	2.027274131774902	-0.2790562212467194	0.3740555942058563	0.9139342308044434	0.03893795982003212	0.1000000014901161	0.1000000014901161	0.1000000014901161	-0.2807141840457916	-1.41401481628418	0.5869427919387817	0.4570189714431763	0.9324630498886108	0.3626956343650818	0.1000000014901161	0.1000000014901161	0.1000000014901161	
733	7.32	332.1176147460938	1172.530029296875	1393.766479492188	501.6328735351562	1130.16064453125	1426.097778320312	157.3759918212891	1102.566284179688	1427.429077148438	491.5045776367188	1004.187622070312	637.7771606445312	472.9378051757812	984.5771484375	538.2409057617188	488.1868591308594	1020.592590332031	579.3821411132812	488.9540100097656	1057.502319335938	572.7479858398438	180.5559692382812	1194.087524414062	636.47900390625	167.4809875488281	1264.263427734375	629.8522338867188	177.9055480957031	1226.122680664062	613.4960327148438	458.625732421875	930.5253295898438	362.4004211425781	461.7865600585938	963.546142578125	411.6682739257812	451.5029296875	931.3836669921875	315.0484008789062	449.4334106445312	893.2694702148438	378.0674438476562	193.1002960205078	1349.041381835938	365.74072265625	204.5918273925781	1386.535400390625	312.2164001464844	203.4501190185547	1347.333618164062	415.9796752929688	296.9438781738281	1416.781494140625	38.57670974731445	266.0238952636719	1626.744140625	131.5650939941406	227.8479766845703	1588.64794921875	104.5496673583984	369.7944641113281	1009.881225585938	30.25837326049805	418.913330078125	956.385986328125	28.02290725708008	201.058349609375	1244.450073242188	545.33154296875	193.8906555175781	1300.906005859375	363.6624450683594	334.5703430175781	776.0357055664062	62.88982009887695	369.7693176269531	973.408203125	887.2863159179688	300.2232055664062	979.1571044921875	884.28515625	340.6274108886719	1038.983520507812	1468.013305664062	289.4553527832031	1006.720825195312	995.8721923828125	369.7123107910156	1000.193237304688	1002.223022460938	1514.781127929688	1874.927856445312	632.480224609375	1593.419189453125	1886.998901367188	696.4597778320312	1627.3935546875	1802.684448242188	662.8636474609375	1463.692749023438	1824.044921875	577.3324584960938	2072.6708984375	1753.490112304688	493.9794006347656	nan	nan	nan	nan	nan	nan	nan	nan	nan	1628.137084960938	1821.311645507812	657.9324340820312	nan	nan	nan	1445.60498046875	1364.223876953125	518.1810913085938	nan	nan	nan	nan	nan	nan	nan	nan	nan	nan	nan	nan	nan	nan	nan	nan	nan	nan	nan	nan	nan	nan	nan	nan	nan	nan	nan	nan	nan	nan	nan	nan	nan	nan	nan	nan	nan	nan	nan	nan	nan	nan	nan	nan	nan	nan	nan	nan	nan	nan	nan	nan	nan	nan	nan	nan	nan	nan	nan	nan	nan	nan	nan	nan	nan	nan	nan	nan	nan	nan	nan	nan	466.9438781738281	1098.09326171875	885.700927734375	221.9304962158203	1134.292602539062	862.5444946289062	419.6962280273438	991.6917114257812	455.7051086425781	321.3554992675781	1000.018615722656	471.8221740722656	263.5706176757812	1311.499877929688	469.3983459472656	362.4947814941406	1317.925659179688	482.5403137207031	419.6960144042969	991.6920166015625	455.7049865722656	263.5710144042969	1311.5	469.3980102539062	283.5750122070312	798.6742553710938	52.81687545776367	257.638427734375	1442.34912109375	36.46703338623047	2.212891340255737	2.47542142868042	-1.927411437034607	0.1828519850969315	1.234168887138367	0.6038108468055725	0.1000000014901161	0.1000000014901161	0.1000000014901161	0.1563110947608948	-0.5243249535560608	1.62165105342865	0.2636052668094635	1.544057965278625	0.09156382083892822	0.1000000014901161	0.1000000014901161	0.1000000014901161	2.470178365707397	2.565589904785156	-2.013901948928833	0.1972460001707077	1.345493197441101	0.3472161293029785	0.1000000014901161	0.1000000014901161	0.1000000014901161	-1.8048335313797	0.01175122242420912	-0.12413639575243	0.3429675400257111	0.993346631526947	0.9618068933486938	0.1000000014901161	0.1000000014901161	0.1000000014901161	-0.03029563091695309	1.724423766136169	-0.3078157007694244	0.483978271484375	1.003237009048462	0.585067093372345	0.1000000014901161	0.1000000014901161	0.1000000014901161	2.408490419387817	2.026108026504517	-0.3165100514888763	0.3744260668754578	0.9141010046005249	0.04039036855101585	0.1000000014901161	0.1000000014901161	0.1000000014901161	-0.2944910228252411	-1.410419106483459	0.6087064743041992	0.4573622941970825	0.9419063925743103	0.3629664480686188	0.1000000014901161	0.1000000014901161	0.1000000014901161	
